<?xml version="1.0" encoding="UTF-8"?>
<svg version="1.1" xmlns="http://www.w3.org/2000/svg" width="512" height="512">
<path d="M0 0 C1.18835247 -0.00538554 2.37670493 -0.01077108 3.60106808 -0.01631981 C6.89622077 -0.02815347 10.19086789 -0.02652702 13.48600066 -0.019153 C17.04095859 -0.01442593 20.59586208 -0.02692707 24.15080261 -0.03717041 C31.11385047 -0.05437279 38.07680815 -0.05519546 45.03987174 -0.04995751 C50.69903578 -0.04591728 56.35817314 -0.04735761 62.01733589 -0.05270576 C63.22516639 -0.0538284 63.22516639 -0.0538284 64.45739751 -0.05497371 C66.09316246 -0.05650518 67.7289274 -0.05804352 69.36469234 -0.05958868 C84.70703845 -0.0733189 100.04933357 -0.06787234 115.39167852 -0.05640347 C129.42942016 -0.04647031 143.46703001 -0.05941222 157.50475132 -0.08333766 C171.91713047 -0.10771668 186.32944821 -0.1173395 200.74184757 -0.11068493 C208.83395378 -0.10719007 216.92595861 -0.10944235 225.01804924 -0.12693596 C231.90661949 -0.14164298 238.79501698 -0.14231312 245.68358379 -0.12486505 C249.19830756 -0.11634021 252.71272251 -0.11424124 256.22743034 -0.1295166 C260.03719579 -0.14586938 263.84648241 -0.13124498 267.65625 -0.11352539 C268.76762831 -0.1231304 269.87900661 -0.1327354 271.02406305 -0.14263147 C279.15913038 -0.06455079 282.39060078 1.43661157 288.20802307 7.1572113 C289.13117565 8.1644514 290.04642437 9.1789858 290.95411682 10.20018005 C291.43155334 10.72990417 291.90898987 11.2596283 292.40089417 11.80540466 C302.5167471 23.15409466 302.5167471 23.15409466 302.57911682 31.01268005 C302.59329651 31.80932068 302.6074762 32.6059613 302.62208557 33.42674255 C302.42529848 35.95495631 302.00953468 38.04156201 301.39377594 40.48240185 C300.30233099 45.31587522 300.10698976 49.89303638 300.12660217 54.83306885 C300.1222209 55.74040148 300.11783963 56.64773411 300.1133256 57.58256167 C300.10107953 60.5994395 300.10280861 63.61614171 300.10450745 66.63304138 C300.09847878 68.80519364 300.09155341 70.97734357 300.08380127 73.14949036 C300.06894703 77.81476333 300.0601719 82.47999376 300.05609131 87.14528847 C300.04936639 94.51923509 300.02760088 101.89309061 300.0035553 109.26699829 C299.95048338 126.24332171 299.91702039 143.21967312 299.88379669 160.19604492 C299.85312557 175.77108541 299.8183394 191.34608662 299.7674861 206.921076 C299.74411073 214.25506932 299.73039018 221.58899881 299.72399139 228.92302573 C299.71806571 233.47710028 299.70398143 238.03112277 299.68764687 242.58517075 C299.68175675 244.7007791 299.67930156 246.81640015 299.68048668 248.93201637 C299.6816411 251.81385884 299.6706676 254.69540692 299.65663147 257.57720947 C299.65993044 258.4193186 299.66322942 259.26142773 299.66662836 260.12905532 C299.60453708 267.82303973 299.60453708 267.82303973 297.39161682 270.38768005 C295.41161682 271.04768005 293.43161682 271.70768005 291.39161682 272.38768005 C291.39161682 277.66768005 291.39161682 282.94768005 291.39161682 288.38768005 C293.04161682 288.71768005 294.69161682 289.04768005 296.39161682 289.38768005 C298.49761688 291.45900519 299.29694003 292.75107194 299.73219299 295.67771912 C299.71648254 296.49466248 299.70077209 297.31160583 299.68458557 298.15330505 C299.6749176 299.04275818 299.66524963 299.9322113 299.6552887 300.84861755 C299.61758362 302.22920349 299.61758362 302.22920349 299.57911682 303.63768005 C299.56558167 304.57353943 299.55204651 305.5093988 299.5381012 306.47361755 C299.50281636 308.77889332 299.45351964 311.08299066 299.39161682 313.38768005 C300.27720276 313.63389099 301.1627887 313.88010193 302.07521057 314.1337738 C309.99861909 317.12955017 315.82393064 323.92093735 319.50099182 331.3915863 C319.79489807 332.05029724 320.08880432 332.70900818 320.39161682 333.38768005 C320.80411682 334.27455505 321.21661682 335.16143005 321.64161682 336.07518005 C323.26735985 341.08788772 323.52531498 346.04917625 323.56861877 351.28831482 C323.57518997 351.95105911 323.58176117 352.61380341 323.58853149 353.29663086 C323.60812069 355.47411752 323.61989775 357.65153552 323.62989807 359.8290863 C323.6339736 360.57963728 323.63804913 361.33018826 323.64224815 362.1034832 C323.66305268 366.08012993 323.67737579 370.05674277 323.68678284 374.03343201 C323.69780632 378.10595193 323.73217477 382.17791936 323.77195454 386.25024509 C323.79831625 389.41189469 323.80649205 392.57341677 323.81006432 395.73516655 C323.81488381 397.23443754 323.82636229 398.73370467 323.84510231 400.23286629 C324.00104245 413.53977796 322.22703892 425.90267787 313.39161682 436.38768005 C310.51661682 438.95018005 310.51661682 438.95018005 308.39161682 440.38768005 C309.53810818 443.09756871 310.7656538 444.80108934 312.76661682 447.01268005 C320.76937152 456.6678254 319.88067664 467.67696352 319.64161682 479.51268005 C319.62151764 481.24963859 319.60327292 482.98661962 319.58692932 484.72361755 C319.54321193 488.94553492 319.47437542 493.16635489 319.39161682 497.38768005 C320.50536682 497.49080505 321.61911682 497.59393005 322.76661682 497.70018005 C324.56099182 498.04049255 324.56099182 498.04049255 326.39161682 498.38768005 C328.87200589 502.10826366 328.85498885 503.98564576 328.39161682 508.38768005 C326.24395727 511.28817628 325.05242919 512.27455066 321.46285439 512.88907671 C319.73686044 512.89005082 319.73686044 512.89005082 317.97599792 512.89104462 C317.33099893 512.89685838 316.68599994 512.90267214 316.02145553 512.90866208 C313.85100891 512.92330927 311.68168489 512.90935631 309.51124573 512.89561462 C307.94321424 512.90022171 306.37518706 512.90657334 304.80716896 512.9145236 C300.49121379 512.93126659 296.17561109 512.92294815 291.85965443 512.91057873 C287.20791004 512.9015508 282.55622746 512.91548671 277.90449524 512.92649841 C268.78895221 512.94431242 259.6735407 512.94043084 250.55799246 512.92884785 C243.15155041 512.91982512 235.7451453 512.91858449 228.33869934 512.92294312 C226.75928871 512.92386251 226.75928871 512.92386251 225.1479708 512.92480049 C223.00913984 512.92607935 220.8703089 512.9273762 218.73147798 512.92869085 C198.66174559 512.94010509 178.59208622 512.92696971 158.52236581 512.90548939 C141.2905952 512.88761765 124.05893236 512.89072152 106.8271637 512.90916443 C86.83069521 512.93055625 66.83429075 512.93900637 46.83781242 512.92671537 C44.70671973 512.92544114 42.57562702 512.92418366 40.4445343 512.92294312 C39.3959152 512.92232601 38.3472961 512.92170891 37.26690066 512.92107311 C29.86682707 512.91761514 22.466794 512.92345817 15.06672668 512.93286133 C6.05211562 512.94406394 -2.96235608 512.94107793 -11.97695112 512.91973835 C-16.57895805 512.90920448 -21.18073237 512.90514573 -25.78273773 512.91833496 C-29.99204611 512.93021654 -34.20090532 512.92376684 -38.4101727 512.90242475 C-39.93635463 512.89794062 -41.46257417 512.90026535 -42.9887321 512.9099279 C-45.05728872 512.92202426 -47.12429003 512.90968902 -49.19276428 512.89104462 C-50.34342691 512.89039521 -51.49408955 512.8897458 -52.67962074 512.88907671 C-56.2689391 512.27459457 -57.45263008 511.27998963 -59.60838318 508.38768005 C-60.10838318 504.88768005 -60.10838318 504.88768005 -59.60838318 501.38768005 C-57.73338318 498.95018005 -57.73338318 498.95018005 -55.60838318 497.38768005 C-54.94838318 497.38768005 -54.28838318 497.38768005 -53.60838318 497.38768005 C-53.61885681 496.43514343 -53.62933044 495.48260681 -53.64012146 494.50120544 C-53.67663499 490.92849057 -53.69939636 487.35579181 -53.71824646 483.78294373 C-53.72823323 482.2438529 -53.74182737 480.7047807 -53.75926208 479.16575623 C-53.90701056 465.77713697 -53.46270713 455.14388874 -44.23338318 444.70018005 C-35.9327075 437.38768005 -35.9327075 437.38768005 -31.60838318 437.38768005 C-31.69014095 387.72976199 -31.78230409 338.07187262 -31.88843479 288.41400034 C-31.90095376 282.5522811 -31.91338652 276.69056169 -31.92576599 270.82884216 C-31.92823199 269.66187258 -31.93069798 268.494903 -31.9332387 267.2925707 C-31.97296929 248.3937685 -32.00571531 229.49496031 -32.03588299 210.59614069 C-32.06699001 191.20619646 -32.10559622 171.81627764 -32.15117323 152.42636198 C-32.17906311 140.46044667 -32.20109402 128.49454996 -32.21564569 116.52861088 C-32.22618261 108.32465424 -32.24399962 100.1207336 -32.26755022 91.91680408 C-32.2809251 87.182631 -32.29108169 82.4485084 -32.29259682 77.71431541 C-32.2940554 73.37825062 -32.3046765 69.04230737 -32.32251759 64.70627993 C-32.32735893 63.13951523 -32.32886719 61.57273586 -32.32666199 60.00596524 C-32.31748882 52.20700581 -32.54914952 44.9543112 -34.60838318 37.38768005 C-35.53099334 30.14873883 -35.24501271 24.70486524 -30.72166443 18.8212738 C-30.02428162 18.01818787 -29.3268988 17.21510193 -28.60838318 16.38768005 C-28.15253845 15.85932556 -27.69669373 15.33097107 -27.22703552 14.78660583 C-24.70180535 11.88491347 -22.13585202 9.01971161 -19.51072693 6.20799255 C-19.07236511 5.73635681 -18.6340033 5.26472107 -18.18235779 4.77879333 C-12.43410393 -0.3016395 -7.38735289 -0.03986886 0 0 Z " fill="#020101" transform="translate(121.60838317871094,-0.3876800537109375)"/>
<path d="M0 0 C98.34 0 196.68 0 298 0 C297.35869195 5.13046438 296.68441153 9.86683888 295.58203125 14.8671875 C295.30045166 16.15085205 295.01887207 17.4345166 294.72875977 18.75708008 C294.42352483 20.1297612 294.11810013 21.50240014 293.8125 22.875 C293.4945539 24.31466274 293.17676646 25.75436052 292.85913086 27.1940918 C290.50005043 37.86035379 288.06440477 48.50839136 285.58984375 59.1484375 C283.74709593 67.07330478 281.93594983 75.00532031 280.125 82.9375 C279.78394879 84.43074847 279.44288428 85.9239939 279.10180664 87.41723633 C278.41183589 90.43812577 277.72199449 93.45904471 277.03222656 96.47998047 C276.01947052 100.91517405 275.00592827 105.35018766 273.9921875 109.78515625 C273.74515579 110.86620132 273.74515579 110.86620132 273.49313354 111.96908569 C272.66629754 115.58706899 271.8386164 119.20485523 271.00927734 122.82226562 C269.45737836 129.59537679 267.91355931 136.37002668 266.39782715 143.15133667 C265.68924203 146.31920691 264.97613101 149.48605114 264.26269531 152.65283203 C263.927111 154.14825966 263.59369196 155.64417525 263.26269531 157.140625 C257.58766812 182.78940769 257.58766812 182.78940769 251 187 C248.11458834 187.38751637 245.61375936 187.54545225 242.73243713 187.5146637 C241.90343728 187.52160922 241.07443742 187.52855475 240.22031635 187.53571075 C237.44421082 187.55399795 234.6689582 187.54371179 231.89282227 187.53344727 C229.90183879 187.54050488 227.91086067 187.54924923 225.91989136 187.55955505 C220.51284447 187.5820766 215.10608991 187.57910278 209.69901395 187.57023358 C205.18595225 187.56512717 200.67294566 187.57241346 196.15988964 187.57970566 C185.51368938 187.59671352 174.86763243 187.5931299 164.22143555 187.57641602 C153.23603168 187.55949268 142.25102511 187.57533032 131.26566464 187.6076389 C121.83536956 187.63432383 112.40519824 187.64161377 102.97486919 187.63312382 C97.3419319 187.62819156 91.70923371 187.63042655 86.07632637 187.65091133 C80.77957402 187.66925112 75.48339372 187.66333026 70.18667221 187.63871193 C68.24283446 187.6336987 66.29895325 187.63720703 64.35515022 187.64986038 C61.70095645 187.66577112 59.04865099 187.65085963 56.39454651 187.62818909 C55.62557165 187.64002482 54.8565968 187.65186054 54.06431967 187.66405493 C48.2666023 187.56346798 45.91329293 185.98176971 42 182 C40.90722656 179.96142578 40.90722656 179.96142578 40.390625 177.8203125 C40.16955078 176.94665039 39.94847656 176.07298828 39.72070312 175.17285156 C39.48287109 174.12581055 39.24503906 173.07876953 39 172 C38.68303568 170.68423346 38.36456797 169.36882855 38.04492188 168.05371094 C36.91005724 163.33574106 35.82905368 158.60598986 34.75 153.875 C34.34988709 152.13229782 33.94965759 150.38962241 33.54931641 148.64697266 C30.93770904 137.24961387 28.41878302 125.83387045 25.94934082 114.40499878 C23.66447299 103.84527961 21.18814573 93.34222735 18.62231445 82.84765625 C15.73431839 71.00276853 13.06247955 59.11262952 10.39929199 47.21554565 C9.22154163 41.96409049 8.02203718 36.7177743 6.81640625 31.47265625 C6.5418737 30.27727234 6.5418737 30.27727234 6.26179504 29.05773926 C5.54035454 25.91717494 4.81876399 22.77665047 4.09378052 19.63690186 C3.59482572 17.47573565 3.09802342 15.31408398 2.6015625 13.15234375 C2.31619629 11.91476318 2.03083008 10.67718262 1.73681641 9.40209961 C1.06221324 6.28725695 0.52394899 3.14369396 0 0 Z " fill="#F4F2F3" transform="translate(106,49)"/>
<path d="M0 0 C1.89782227 -0.0309375 1.89782227 -0.0309375 3.83398438 -0.0625 C20.30811162 -0.12936607 34.76017715 3.97381218 50.1875 9.1875 C53.34490622 10.2426569 56.50408054 11.29242774 59.6640625 12.33984375 C60.80423325 12.71805771 60.80423325 12.71805771 61.96743774 13.10391235 C88.51638291 21.85570848 122.35516741 27.28526848 149.19262695 16.15966797 C152.06093237 15.05867838 153.65342447 15.41883556 156.5625 16.25 C157.38169421 19.26905791 158.19161767 22.29053079 159 25.3125 C159.23009766 26.16005859 159.46019531 27.00761719 159.69726562 27.88085938 C159.91962891 28.71552734 160.14199219 29.55019531 160.37109375 30.41015625 C160.57532959 31.16949463 160.77956543 31.92883301 160.98999023 32.71118164 C162.64977412 40.07156228 162.68303438 47.16535125 162.625 54.6875 C162.62048828 55.80060547 162.61597656 56.91371094 162.61132812 58.06054688 C162.59961193 60.79042101 162.58320699 63.52018174 162.5625 66.25 C161.54574818 66.25146656 160.52899635 66.25293312 159.48143387 66.25444412 C134.76146172 66.29101086 110.04162536 66.35042324 85.3217659 66.43390274 C73.36750305 66.47374157 61.41330649 66.50610943 49.45898438 66.52099609 C39.04170677 66.53398752 28.62457474 66.56088784 18.2073791 66.60461307 C12.68961398 66.62728439 7.17202878 66.64290729 1.65421295 66.64188385 C-3.53655307 66.64114058 -8.72692052 66.6589568 -13.91758347 66.69116783 C-15.82515268 66.69970475 -17.7327664 66.70139121 -19.64034653 66.69580269 C-22.24057993 66.68919814 -24.83953194 66.70699716 -27.43963623 66.73101807 C-28.57777083 66.71937744 -28.57777083 66.71937744 -29.73889804 66.70750165 C-33.17660023 66.76390802 -35.12310685 67.02359368 -37.94517899 69.05587387 C-39.7927211 71.30787298 -39.7927211 71.30787298 -39.3125 74.875 C-38.73009286 78.29542055 -38.73009286 78.29542055 -36.4375 80.25 C-33.38422372 80.44504814 -30.42159081 80.51298377 -27.36727905 80.49482727 C-26.41566348 80.49709184 -25.4640479 80.49935642 -24.48359549 80.50168961 C-21.27464156 80.50701338 -18.06587812 80.49813196 -14.85693359 80.48950195 C-12.5642287 80.49061411 -10.27152409 80.49267078 -7.9788208 80.49560547 C-3.03076981 80.5003387 1.91723378 80.49919602 6.86528397 80.49382973 C14.68922619 80.48624197 22.5130764 80.49685124 30.33700562 80.5110321 C33.01353637 80.51557887 35.69006712 80.5200839 38.36659813 80.52447033 C39.03555802 80.52556847 39.7045179 80.52666661 40.3937493 80.52779803 C48.01233347 80.5399776 55.63092036 80.54752532 63.24951172 80.5534668 C64.29437327 80.55428889 64.29437327 80.55428889 65.36034314 80.55512758 C76.63890806 80.56357985 87.91744907 80.56025263 99.19601412 80.55431245 C110.77653769 80.54869129 122.35693371 80.56255433 133.9374212 80.59186524 C141.71449894 80.61053724 149.49115882 80.60718294 157.26822972 80.58769763 C162.11100545 80.58081622 166.95355462 80.5947733 171.79628754 80.61464691 C174.04083118 80.61969494 176.28541287 80.61620744 178.5299263 80.60351372 C181.59730161 80.58740114 184.66307374 80.60205576 187.7303772 80.6242218 C188.61619213 80.6121843 189.50200706 80.60014681 190.41466486 80.58774453 C196.63373833 80.67921767 200.71981322 82.33399126 205.5625 86.25 C216.49287276 98.02117067 210.5625 109.81930918 210.5625 128.25 C97.7025 128.25 -15.1575 128.25 -131.4375 128.25 C-131.4375 91.36735941 -131.4375 91.36735941 -125.83984375 85.60546875 C-121.38765975 82.05559404 -118.52200378 81.1288389 -112.91210938 81.09228516 C-111.21519958 81.07689194 -111.21519958 81.07689194 -109.48400879 81.06118774 C-108.26209839 81.05388641 -107.04018799 81.04658508 -105.78125 81.0390625 C-103.20702478 81.01100448 -100.6328061 80.9823401 -98.05859375 80.953125 C-93.98978071 80.91062412 -89.92100933 80.87383778 -85.85205078 80.84863281 C-81.93239698 80.82370079 -78.01318226 80.7752642 -74.09375 80.7265625 C-72.2608844 80.7216832 -72.2608844 80.7216832 -70.39099121 80.71670532 C-69.25971802 80.70013885 -68.12844482 80.68357239 -66.96289062 80.66650391 C-65.9660022 80.65841705 -64.96911377 80.6503302 -63.9420166 80.64199829 C-61.41181046 80.43895175 -61.41181046 80.43895175 -59.61950684 78.94271851 C-57.6139939 76.07068024 -58.01654387 73.617649 -58.4375 70.25 C-61.24039443 67.51634704 -63.34444234 66.86195698 -67.203125 66.73828125 C-68.53730469 66.68510742 -68.53730469 66.68510742 -69.8984375 66.63085938 C-70.81882813 66.60830078 -71.73921875 66.58574219 -72.6875 66.5625 C-73.62335938 66.52833984 -74.55921875 66.49417969 -75.5234375 66.45898438 C-77.82800533 66.37667838 -80.13220119 66.3074737 -82.4375 66.25 C-82.66259757 58.36119594 -82.70028327 50.49514613 -82.50830078 42.60498047 C-82.46602778 40.6018235 -82.44793576 38.59758498 -82.47998047 36.59423828 C-82.51568569 31.5468177 -82.05641853 27.05202848 -78.4375 23.25 C-71.19589653 18.40931889 -62.96360741 15.45455758 -54.82275391 12.48828125 C-51.87422451 11.40974807 -48.97292015 10.26698067 -46.07421875 9.0625 C-30.80982042 2.75726184 -16.5441682 0.06561891 0 0 Z " fill="#A69AA6" transform="translate(215.4375,368.75)"/>
<path d="M0 0 C1.89782227 -0.0309375 1.89782227 -0.0309375 3.83398438 -0.0625 C20.30811162 -0.12936607 34.76017715 3.97381218 50.1875 9.1875 C53.34490622 10.2426569 56.50408054 11.29242774 59.6640625 12.33984375 C60.80423325 12.71805771 60.80423325 12.71805771 61.96743774 13.10391235 C88.51638291 21.85570848 122.35516741 27.28526848 149.19262695 16.15966797 C152.06093237 15.05867838 153.65342447 15.41883556 156.5625 16.25 C157.38169421 19.26905791 158.19161767 22.29053079 159 25.3125 C159.23009766 26.16005859 159.46019531 27.00761719 159.69726562 27.88085938 C159.91962891 28.71552734 160.14199219 29.55019531 160.37109375 30.41015625 C160.57532959 31.16949463 160.77956543 31.92883301 160.98999023 32.71118164 C162.64977412 40.07156228 162.68303438 47.16535125 162.625 54.6875 C162.62048828 55.80060547 162.61597656 56.91371094 162.61132812 58.06054688 C162.59961193 60.79042101 162.58320699 63.52018174 162.5625 66.25 C161.54574818 66.25146656 160.52899635 66.25293312 159.48143387 66.25444412 C134.76146172 66.29101086 110.04162536 66.35042324 85.3217659 66.43390274 C73.36750305 66.47374157 61.41330649 66.50610943 49.45898438 66.52099609 C39.04170677 66.53398752 28.62457474 66.56088784 18.2073791 66.60461307 C12.68961398 66.62728439 7.17202878 66.64290729 1.65421295 66.64188385 C-3.53655307 66.64114058 -8.72692052 66.6589568 -13.91758347 66.69116783 C-15.82515268 66.69970475 -17.7327664 66.70139121 -19.64034653 66.69580269 C-22.24057993 66.68919814 -24.83953194 66.70699716 -27.43963623 66.73101807 C-28.57777083 66.71937744 -28.57777083 66.71937744 -29.73889804 66.70750165 C-33.18463131 66.7640398 -35.09138633 66.98801326 -37.87486649 69.09493637 C-39.60658812 71.25578663 -39.60658812 71.25578663 -40.4375 74.25 C-46.0475 74.25 -51.6575 74.25 -57.4375 74.25 C-58.0975 72.6 -58.7575 70.95 -59.4375 69.25 C-62.56867567 67.16254955 -63.50696224 66.97346004 -67.10546875 66.8359375 C-67.99814453 66.79726563 -68.89082031 66.75859375 -69.81054688 66.71875 C-70.73931641 66.6878125 -71.66808594 66.656875 -72.625 66.625 C-73.56537109 66.58632813 -74.50574219 66.54765625 -75.47460938 66.5078125 C-77.7953771 66.41356813 -80.11613748 66.32795975 -82.4375 66.25 C-82.66259757 58.36119594 -82.70028327 50.49514613 -82.50830078 42.60498047 C-82.46602778 40.6018235 -82.44793576 38.59758498 -82.47998047 36.59423828 C-82.51568569 31.5468177 -82.05641853 27.05202848 -78.4375 23.25 C-71.19589653 18.40931889 -62.96360741 15.45455758 -54.82275391 12.48828125 C-51.87422451 11.40974807 -48.97292015 10.26698067 -46.07421875 9.0625 C-30.80982042 2.75726184 -16.5441682 0.06561891 0 0 Z " fill="#C58C79" transform="translate(215.4375,368.75)"/>
<path d="M0 0 C1.91334716 2.87002074 2.41486253 4.24889731 3.04296875 7.5234375 C3.22585449 8.44640625 3.40874023 9.369375 3.59716797 10.3203125 C3.79197754 11.32835938 3.98678711 12.33640625 4.1875 13.375 C6.04405882 22.63952363 8.11588045 31.82557946 10.375 41 C12.89235753 51.26396878 15.26049547 61.54785454 17.5 71.875 C17.78990634 73.20518844 18.07994536 74.53534797 18.37011719 75.86547852 C19.71842151 82.05497906 21.05421354 88.24676318 22.36322021 94.44470215 C22.96261024 97.26789401 23.57394839 100.08841727 24.18774414 102.9085083 C24.61148346 104.87477938 25.01986654 106.84434031 25.42773438 108.81396484 C27.86529011 119.95430973 31.37332529 128.71320772 41.24414062 135.09863281 C47.40910421 138.09353221 54.07328099 137.60532082 60.78125 137.609375 C62.20473086 137.62437742 63.62819444 137.64110886 65.05163574 137.65948486 C68.77352759 137.70294024 72.49518473 137.72310844 76.21728516 137.73822021 C80.02520502 137.75787071 83.83287429 137.79983138 87.640625 137.83984375 C95.09371397 137.9149093 102.54660541 137.96327753 110 138 C110 146.25 110 154.5 110 163 C107.710625 163.02578125 105.42125 163.0515625 103.0625 163.078125 C100.8216574 163.11664349 98.58103735 163.1617716 96.34033203 163.20751953 C94.79454343 163.23557787 93.24861539 163.25686706 91.70263672 163.27099609 C78.34005101 163.15382744 78.34005101 163.15382744 67.16015625 169.81640625 C66.79792969 170.39261719 66.43570313 170.96882812 66.0625 171.5625 C65.68222656 172.14128906 65.30195313 172.72007812 64.91015625 173.31640625 C62.82018893 177.1823973 62.71467651 180.87146579 62.4375 185.1875 C62.35371094 186.45980469 62.26992187 187.73210937 62.18359375 189.04296875 C62.12300781 190.01878906 62.06242187 190.99460937 62 192 C61.27554688 192.01417969 60.55109375 192.02835938 59.8046875 192.04296875 C53.11439397 192.37302323 49.59992156 193.03692674 45 198 C42.95956195 202.08087609 43.46980824 207.16043965 44.70703125 211.453125 C45.25540916 212.96554628 45.83132352 214.46842938 46.44140625 215.95703125 C47.14990752 218.54826318 47.04081189 219.5093235 46 222 C44.41649091 224.19412422 42.79796436 226.31425361 41.125 228.4375 C20.02523459 256.25082714 13.6178569 287.98242986 12 322 C8.04 322 4.08 322 0 322 C0 215.74 0 109.48 0 0 Z " fill="#C7C0C8" transform="translate(105,113)"/>
<path d="M0 0 C60.39 0 120.78 0 183 0 C182.01 3.3 181.02 6.6 180 10 C179.30508789 15.08637055 179.59897726 17.91315909 182.5625 22.0078125 C183.69192859 23.39374014 184.83864676 24.76571232 186 26.125 C191.90163931 33.39022988 196.65228625 40.7117602 201 49 C185.71948558 59.18700961 157.52008073 58.02471846 140.10327148 55.12353516 C129.00243937 52.88860266 118.28784978 48.86129049 107.64233398 45.0612793 C90.05900561 38.78628832 73.667792 34.58842456 54.9375 34.6875 C53.84125809 34.69073273 53.84125809 34.69073273 52.72286987 34.69403076 C29.19680867 34.80538074 9.58025704 40.07019918 -11.62841797 50.19189453 C-12.43166504 50.57071777 -13.23491211 50.94954102 -14.0625 51.33984375 C-15.13177734 51.85599243 -15.13177734 51.85599243 -16.22265625 52.38256836 C-16.80917969 52.5863208 -17.39570313 52.79007324 -18 53 C-18.66 52.67 -19.32 52.34 -20 52 C-15.05441193 42.69417123 -9.88451135 34.07902374 -3.26171875 25.8671875 C1.1039101 20.81793794 1.1039101 20.81793794 3.2421875 14.7265625 C3.12101562 14.03304688 2.99984375 13.33953125 2.875 12.625 C2.76929688 11.93664062 2.66359375 11.24828125 2.5546875 10.5390625 C1.78319724 7.007593 0.87670755 3.50683018 0 0 Z " fill="#F7F5F6" transform="translate(164,320)"/>
<path d="M0 0 C0.33 0 0.66 0 1 0 C1.00238835 0.76421894 1.00477671 1.52843788 1.00723743 2.31581497 C1.06634679 20.90207311 1.1418707 39.48819799 1.23571491 58.07431412 C1.28070034 67.0623889 1.32010863 76.05042382 1.34643555 85.03857422 C1.36939342 92.87170327 1.40276658 100.70470644 1.44870156 108.5377357 C1.47266372 112.68613863 1.49137283 116.83441668 1.49761391 120.98288727 C1.5036513 124.88665555 1.52360199 128.79010414 1.55427551 132.6937542 C1.56307741 134.12722748 1.56677387 135.5607425 1.56500816 136.99424171 C1.56335934 138.95031971 1.58179654 140.906384 1.60127258 142.86236572 C1.60588155 143.95745579 1.61049051 145.05254585 1.61523914 146.18082047 C2.04854207 149.35567239 2.81218867 150.69990058 5 153 C7.08334635 154.2516467 7.08334635 154.2516467 9 155 C9.16236745 157.58585205 9.28095486 160.16151954 9.375 162.75 C9.42527344 163.47960937 9.47554688 164.20921875 9.52734375 164.9609375 C9.5859375 167.109375 9.5859375 167.109375 9 171 C6.0390625 173.390625 6.0390625 173.390625 3 175 C1.414131 178.171738 1.62133555 181.63513822 1.4375 185.125 C1.37272461 186.25615234 1.37272461 186.25615234 1.30664062 187.41015625 C1.2005168 189.27321888 1.09974999 191.13658524 1 193 C-5.335371 193.07606171 -11.67062424 193.12860457 -18.00634766 193.16479492 C-20.16166586 193.17988182 -22.31695336 193.20035389 -24.47216797 193.22631836 C-27.57006404 193.26270544 -30.66755423 193.27972739 -33.765625 193.29296875 C-34.72929993 193.30845261 -35.69297485 193.32393646 -36.68585205 193.33988953 C-37.58648376 193.34011612 -38.48711548 193.34034271 -39.41503906 193.34057617 C-40.60084564 193.35056892 -40.60084564 193.35056892 -41.81060791 193.36076355 C-44.54533241 192.91014124 -45.85489446 191.70701122 -48 190 C-51.26269913 189.21060842 -51.26269913 189.21060842 -54.75 188.8125 C-55.92046875 188.65394531 -57.0909375 188.49539063 -58.296875 188.33203125 C-59.18890625 188.22246094 -60.0809375 188.11289062 -61 188 C-61.02578125 186.92621094 -61.0515625 185.85242188 -61.078125 184.74609375 C-61.11468955 174.04745554 -61.11468955 174.04745554 -66 165 C-74.18524868 159.08238114 -82.97520314 159.22285902 -92.625 159.1875 C-94.12112949 159.16431048 -95.61722677 159.13893603 -97.11328125 159.11132812 C-100.74291679 159.04500588 -104.36883698 159.02346815 -108 159 C-108 151.08 -108 143.16 -108 135 C-106.25984619 134.98541748 -104.51969238 134.97083496 -102.72680664 134.95581055 C-96.94716728 134.90395381 -91.16776276 134.83861367 -85.38837528 134.76428509 C-81.8877656 134.71974892 -78.38726781 134.68045731 -74.88647461 134.65356445 C-70.85241123 134.62233683 -66.81895464 134.56755599 -62.78515625 134.51171875 C-61.54105484 134.50532883 -60.29695343 134.4989389 -59.01515198 134.49235535 C-47.89565619 134.30591506 -39.61169626 132.34447262 -31.375 124.5 C-25.1563564 116.54517433 -23.86693832 104.49064068 -21.875 94.875 C-21.2743924 92.03902943 -20.66592422 89.20479107 -20.0546875 86.37109375 C-19.89401794 85.62571854 -19.73334839 84.88034332 -19.56781006 84.11238098 C-17.519958 74.68762142 -15.25434126 65.31455626 -13 55.9375 C-9.06012883 39.53233647 -5.25475658 23.1038266 -1.59741211 6.63330078 C-1.09382775 4.41357829 -0.56356058 2.20512316 0 0 Z " fill="#CAC3CB" transform="translate(404,117)"/>
<path d="M0 0 C1.03318359 -0.03738281 2.06636719 -0.07476562 3.13085938 -0.11328125 C11.68549506 -0.2120519 11.68549506 -0.2120519 15.41015625 2.671875 C17.6875 5.375 17.6875 5.375 17.8125 9 C16.57151438 12.72295685 15.96736413 13.44173804 12.6875 15.375 C10.30566406 15.80737305 10.30566406 15.80737305 7.703125 15.88671875 C6.86040039 15.91983154 6.01767578 15.95294434 5.14941406 15.98706055 C4.08948242 16.01195557 3.02955078 16.03685059 1.9375 16.0625 C-3.13625 16.2171875 -3.13625 16.2171875 -8.3125 16.375 C-8.6425 27.925 -8.9725 39.475 -9.3125 51.375 C40.8475 51.375 91.0075 51.375 142.6875 51.375 C142.3575 39.825 142.0275 28.275 141.6875 16.375 C138.58827148 16.3656543 135.48904297 16.35630859 132.29589844 16.34667969 C122.06586141 16.31294044 111.83602677 16.2574086 101.60615158 16.19109726 C95.40262531 16.15155702 89.19924238 16.11940058 82.99560547 16.10400391 C77.01079922 16.08888059 71.02638688 16.05451174 65.04175568 16.00669098 C62.75640534 15.99183254 60.47099877 15.98395644 58.18560028 15.98311615 C54.98886415 15.98075822 51.7932271 15.95377231 48.59667969 15.92089844 C47.64793472 15.9259288 46.69918976 15.93095917 45.72169495 15.93614197 C39.34139969 15.83436225 39.34139969 15.83436225 36.10333252 13.55963135 C33.99428424 10.30536722 34.07924848 8.15967613 34.6875 4.375 C36.81711059 1.93217075 38.56180273 0.57182791 41.80114174 0.00543022 C44.46396367 -0.15422211 47.09923787 -0.17674728 49.7668457 -0.15844727 C50.7788504 -0.16706284 51.7908551 -0.17567841 52.83352661 -0.18455505 C56.17703884 -0.20724611 59.51971481 -0.20046868 62.86328125 -0.19140625 C65.19109852 -0.1966414 67.51891367 -0.20291748 69.84672546 -0.21018982 C74.72661312 -0.22060062 79.60620933 -0.21602401 84.48608398 -0.20141602 C90.73060092 -0.1842507 96.97419581 -0.2076931 103.21860981 -0.24290562 C108.02715622 -0.26490209 112.83548292 -0.26343219 117.64406395 -0.2551403 C119.94569089 -0.25432158 122.24733408 -0.26116981 124.54891396 -0.27591133 C127.77316948 -0.29339247 130.99578035 -0.27878211 134.2199707 -0.25610352 C135.16518082 -0.26779572 136.11039093 -0.27948792 137.08424377 -0.29153442 C143.51297831 -0.19984859 147.70782989 1.26200234 152.6875 5.375 C156.80730919 9.64015798 158.25915818 14.20439247 158.33093262 20.04798889 C158.30633972 21.23273048 158.30633972 21.23273048 158.28125 22.44140625 C158.28129028 23.27913071 158.28133057 24.11685516 158.28137207 24.97996521 C158.27604443 26.73891768 158.25858064 28.49787179 158.22949219 30.2565918 C158.18755203 32.93417798 158.18843927 35.60924905 158.1953125 38.28710938 C158.18482049 40.00522564 158.17188232 41.72332907 158.15625 43.44140625 C158.15604858 44.23325821 158.15584717 45.02511017 158.15563965 45.84095764 C158.0173132 52.39968882 156.64858324 57.11221165 152.25 62.1875 C147.85257619 65.94139837 145.00754689 66.62569093 139.21060181 66.64242554 C138.23789811 66.64922221 138.23789811 66.64922221 137.24554384 66.65615618 C135.07459332 66.66880731 132.90389344 66.66717939 130.73291016 66.66552734 C129.17556943 66.67151216 127.61823168 66.67831759 126.06089783 66.68588257 C121.83151201 66.7035545 117.60220712 66.70823844 113.37278795 66.70951414 C109.84149266 66.71141356 106.3102162 66.71877159 102.77892816 66.72585833 C94.4470101 66.74214438 86.11513527 66.74702708 77.78320312 66.74560547 C69.18986692 66.74440391 60.59678182 66.76550794 52.00350916 66.7970928 C44.62419059 66.82324867 37.24495407 66.83397306 29.8655895 66.83269465 C25.45889356 66.83218482 21.05242077 66.83787965 16.64577103 66.85905075 C12.50064109 66.87842166 8.35594744 66.87856568 4.21080208 66.86401749 C2.69105835 66.86192685 1.1712874 66.86664552 -0.34840965 66.8787384 C-2.42666263 66.89420246 -4.50341333 66.88487771 -6.58163452 66.86947632 C-8.32432649 66.87111062 -8.32432649 66.87111062 -10.10222435 66.87277794 C-14.70984468 66.15833096 -17.83457152 63.97775467 -20.97007751 60.5774231 C-24.39508989 55.2207426 -25.03854557 50.90781612 -24.94140625 44.6171875 C-24.94502419 43.2571611 -24.94502419 43.2571611 -24.94871521 41.86965942 C-24.94774131 39.96530759 -24.93445768 38.06092582 -24.90942383 36.15673828 C-24.87500766 33.25064696 -24.88881552 30.34758366 -24.90820312 27.44140625 C-24.9013065 25.58332047 -24.89163577 23.72524248 -24.87890625 21.8671875 C-24.88634605 20.57323563 -24.88634605 20.57323563 -24.89393616 19.25314331 C-24.77221346 12.99191371 -23.16884286 9.31514754 -18.71484375 4.73046875 C-12.57971162 -0.1612766 -7.56062411 0.1026118 0 0 Z " fill="#050505" transform="translate(188.3125,66.625)"/>
<path d="M0 0 C0.97726596 -0.01014909 1.95453193 -0.02029817 2.96141201 -0.0307548 C4.58349958 -0.03224808 4.58349958 -0.03224808 6.23835659 -0.03377151 C7.95261205 -0.04691828 7.95261205 -0.04691828 9.70149893 -0.06033063 C12.88346413 -0.08249258 16.06531819 -0.09556555 19.24734294 -0.10469294 C22.67563708 -0.11659394 26.10385843 -0.13981674 29.53210354 -0.16127396 C37.81759103 -0.21035342 46.10310267 -0.23958387 54.38869086 -0.26539409 C56.72889727 -0.27281665 59.0691013 -0.28076325 61.40930533 -0.28889942 C75.94020205 -0.33937891 90.47110249 -0.38348736 105.00206757 -0.40835571 C108.36911502 -0.41421518 111.73616234 -0.42013849 115.1032095 -0.42616653 C115.94008045 -0.42765864 116.7769514 -0.42915074 117.63918208 -0.43068805 C131.19030457 -0.45598502 144.74090158 -0.52241386 158.29177851 -0.6057702 C172.20347148 -0.69064438 186.11489564 -0.73775002 200.02684683 -0.74819684 C207.83827926 -0.75502209 215.64889118 -0.77849269 223.4600687 -0.84440231 C230.11423217 -0.90045667 236.76740713 -0.9223809 243.42178834 -0.90001139 C246.81649309 -0.88964713 250.20745595 -0.9007906 253.60213947 -0.94494247 C275.05838781 -1.20880397 275.05838781 -1.20880397 279.92904377 2.43793106 C282.25268506 4.96180787 283.81406109 7.24406449 285.39056301 10.27402878 C285.94771527 10.9376807 286.50486753 11.60133263 287.0789032 12.28509521 C288.39056301 14.27402878 288.39056301 14.27402878 288.39056301 19.27402878 C187.74056301 19.27402878 87.09056301 19.27402878 -16.60943699 19.27402878 C-16.93943699 17.95402878 -17.26943699 16.63402878 -17.60943699 15.27402878 C-15.91356048 12.87671644 -14.2562737 10.80839618 -12.29693699 8.64902878 C-11.78453465 8.0637944 -11.2721323 7.47856003 -10.74420261 6.87559128 C-4.71933916 0.02594208 -4.71933916 0.02594208 0 0 Z " fill="#A5E6EF" transform="translate(119.60943698883057,14.725971221923828)"/>
<path d="M0 0 C0.33 0 0.66 0 1 0 C1.28875 1.134375 1.5775 2.26875 1.875 3.4375 C2.24625 4.613125 2.6175 5.78875 3 7 C5.29272845 8.14636422 6.59441634 8.13411761 9.14405823 8.15148926 C10.01202026 8.15983292 10.8799823 8.16817657 11.77424622 8.17677307 C13.20579292 8.1830497 13.20579292 8.1830497 14.66625977 8.18945312 C15.66956329 8.19774643 16.67286682 8.20603973 17.70657349 8.21458435 C19.88972441 8.2320094 22.07289429 8.24716945 24.25607491 8.26036072 C27.70526726 8.28133428 31.15436402 8.30836018 34.60350037 8.33703613 C43.16929404 8.40697991 51.73515541 8.46634761 60.30102539 8.52606201 C67.53680901 8.5768964 74.77254107 8.6316891 82.0082531 8.69187927 C85.41682807 8.71855763 88.82540756 8.73930835 92.23402405 8.7598877 C94.31039664 8.77648249 96.38676704 8.7933536 98.46313477 8.81054688 C99.41952347 8.81473129 100.37591217 8.81891571 101.36128235 8.82322693 C102.65899567 8.83574242 102.65899567 8.83574242 103.98292542 8.84851074 C104.7389634 8.85366447 105.49500139 8.85881821 106.27394962 8.86412811 C108 9 108 9 109 10 C109 21.55 109 33.1 109 45 C58.84 45 8.68 45 -43 45 C-43 10 -43 10 -42 9 C-40.48583091 8.89140449 -38.96714503 8.84423884 -37.44921875 8.82421875 C-36.52302734 8.80037109 -35.59683594 8.77652344 -34.64257812 8.75195312 C-32.68446117 8.70924469 -30.7260622 8.67785347 -28.76757812 8.65820312 C-23.2013018 8.58677613 -23.2013018 8.58677613 -18.39453125 6.08203125 C-16.97938492 4.06391937 -16.97938492 4.06391937 -16 2 C-10.72 2 -5.44 2 0 2 C0 1.34 0 0.68 0 0 Z " fill="#D1EFF3" transform="translate(222,73)"/>
<path d="M0 0 C1.0613768 -0.00945648 2.1227536 -0.01891296 3.21629333 -0.02865601 C4.35284866 -0.02258331 5.48940399 -0.01651062 6.66040039 -0.01025391 C7.83768204 -0.01312408 9.01496368 -0.01599426 10.22792053 -0.01895142 C12.71510296 -0.02099091 15.20230147 -0.01546914 17.68945312 -0.00292969 C21.49068205 0.01311028 25.29084535 -0.00277594 29.09204102 -0.02197266 C31.51066315 -0.01998992 33.92928462 -0.01614563 36.34790039 -0.01025391 C38.04969704 -0.01936295 38.04969704 -0.01936295 39.78587341 -0.02865601 C46.90546373 0.03458913 51.5484706 0.54221787 56.91235352 5.59350586 C59.00954344 9.12803664 59.14809593 12.10645977 59.10180664 16.10302734 C59.107547 17.20306847 59.107547 17.20306847 59.11340332 18.32533264 C59.11611597 19.87095518 59.10880001 21.41662414 59.09204102 22.9621582 C59.07064916 25.3155058 59.09184479 27.6657906 59.11743164 30.01904297 C59.11478764 31.52621111 59.10966117 33.03337735 59.10180664 34.54052734 C59.10990356 35.23758286 59.11800049 35.93463837 59.12634277 36.65281677 C59.03082699 41.68375963 57.8592703 44.60060855 54.57055664 48.38818359 C49.15011924 52.38811444 43.09739449 51.83891923 36.63696289 51.82177734 C35.48566391 51.8270192 34.33436493 51.83226105 33.1481781 51.83766174 C30.71825973 51.84407287 28.2883103 51.84275678 25.85839844 51.83422852 C22.14925642 51.82572075 18.44165596 51.85449185 14.73266602 51.88623047 C12.3674321 51.88784272 10.00219547 51.88726449 7.63696289 51.88427734 C6.53260391 51.89551132 5.42824493 51.9067453 4.29042053 51.9183197 C-2.13099653 51.86046462 -6.33709401 51.45740091 -11.42944336 47.38818359 C-15.5813551 41.32665775 -14.91722151 34.64224091 -14.87548828 27.59326172 C-14.86696491 25.39374559 -14.89579847 23.19681966 -14.92749023 20.99755859 C-14.92910236 19.58610103 -14.9285245 18.17463892 -14.92553711 16.76318359 C-14.92739014 15.49216797 -14.92924316 14.22115234 -14.93115234 12.91162109 C-14.33267118 8.70856507 -13.14215014 6.63007865 -10.42944336 3.38818359 C-6.84567069 0.82684005 -4.38527451 0.01125324 0 0 Z " fill="#020202" transform="translate(284.429443359375,162.61181640625)"/>
<path d="M0 0 C6.93746161 -0.12748648 13.87461766 -0.2146377 20.81298828 -0.2746582 C23.16987395 -0.29969708 25.52668279 -0.33373841 27.88330078 -0.37719727 C31.28437328 -0.4383159 34.6844132 -0.46631727 38.0859375 -0.48828125 C39.12801361 -0.51408768 40.17008972 -0.5398941 41.2437439 -0.56648254 C49.23704459 -0.5695004 55.97718503 1.24834882 61.94564819 6.8144989 C66.87050562 12.15489389 68.24434268 16.93607839 68.32226562 24.2019043 C68.33716034 25.26155144 68.33716034 25.26155144 68.35235596 26.34260559 C68.38146112 28.66985033 68.39518139 30.99682222 68.40625 33.32421875 C68.41473213 34.52323287 68.41473213 34.52323287 68.42338562 35.7464695 C68.45331975 39.97902361 68.47180818 44.21144234 68.48046875 48.4440918 C68.49141351 52.79412624 68.53942656 57.14290077 68.59641266 61.49254131 C68.63386117 64.8565469 68.64408693 68.22025535 68.6471405 71.58445168 C68.65315377 73.18671344 68.66907543 74.78897249 68.69551086 76.39102745 C68.83955364 85.79370382 68.51857751 93.55105629 62 101 C55.08900779 107.06647096 44.79204451 110.23563952 35.6875 110.25 C34.470625 110.1675 33.25375 110.085 32 110 C32 105.38 32 100.76 32 96 C33.19238281 95.67386719 34.38476562 95.34773438 35.61328125 95.01171875 C37.17983398 94.57083265 38.74623231 94.12939767 40.3125 93.6875 C41.09818359 93.47416016 41.88386719 93.26082031 42.69335938 93.04101562 C43.45068359 92.82509766 44.20800781 92.60917969 44.98828125 92.38671875 C45.68477783 92.19295654 46.38127441 91.99919434 47.09887695 91.79956055 C49.44692401 90.81203594 50.45420809 90.04550985 52 88 C52.45097369 84.97158331 52.45097369 84.97158331 52.37231445 81.46484375 C52.37596512 80.80598175 52.37961578 80.14711975 52.38337708 79.46829224 C52.39148097 77.29109902 52.37787473 75.11465048 52.36328125 72.9375 C52.36276262 71.42439779 52.36328044 69.9112949 52.36479187 68.39819336 C52.36470215 65.22727396 52.35427434 62.05660884 52.33618164 58.88574219 C52.31349434 54.82013781 52.31295038 50.75490502 52.31969929 46.68925476 C52.32303995 43.56486709 52.31640737 40.44056422 52.30657005 37.31619263 C52.30271943 35.81707198 52.30156927 34.31794189 52.3031559 32.81881714 C52.30352655 30.72408053 52.29090696 28.62982119 52.2746582 26.53515625 C52.27005081 25.342854 52.26544342 24.15055176 52.26069641 22.92211914 C52.21782362 19.80828654 52.21782362 19.80828654 50 17 C47.21420228 16.07140076 45.57275595 15.88024049 42.69970703 15.88989258 C41.835159 15.88931351 40.97061096 15.88873444 40.0798645 15.88813782 C38.68294876 15.89130257 38.68294876 15.89130257 37.2578125 15.89453125 C35.2851453 15.88107706 33.31248829 15.86605425 31.33984375 15.84960938 C28.22994657 15.82676055 25.12120087 15.81251519 22.01123047 15.82495117 C19.00924969 15.83376232 16.0095565 15.80488302 13.0078125 15.76953125 C12.0805838 15.78176224 11.1533551 15.79399323 10.19802856 15.80659485 C3.95303339 15.68941949 3.95303339 15.68941949 1.26507568 13.7449646 C-1.40448829 10.76936379 -2.00936474 9.28094225 -1.875 5.25 C-1 2 -1 2 0 0 Z " fill="#EAE8EA" transform="translate(361,325)"/>
<path d="M0 0 C-1.35417783 6.145884 -2.76321771 12.27570928 -4.21875 18.3984375 C-4.4765625 19.58695312 -4.734375 20.77546875 -5 22 C-5.17789063 22.74870361 -5.35578125 23.49740723 -5.5390625 24.26879883 C-7.37095349 32.81144187 -7.15974043 41.25922096 -7 49.9375 C-6.94666214 52.88409937 -6.90684946 55.83044294 -6.875 58.77734375 C-6.85179687 60.06890381 -6.82859375 61.36046387 -6.8046875 62.69116211 C-7 66 -7 66 -9 70 C-14.61 70 -20.22 70 -26 70 C-26.66 68.35 -27.32 66.7 -28 65 C-31.13117567 62.91254955 -32.06946224 62.72346004 -35.66796875 62.5859375 C-36.56064453 62.54726563 -37.45332031 62.50859375 -38.37304688 62.46875 C-39.30181641 62.4378125 -40.23058594 62.406875 -41.1875 62.375 C-42.12787109 62.33632813 -43.06824219 62.29765625 -44.03710938 62.2578125 C-46.3578771 62.16356813 -48.67863748 62.07795975 -51 62 C-51.22509757 54.11119594 -51.26278327 46.24514613 -51.07080078 38.35498047 C-51.02852778 36.3518235 -51.01043576 34.34758498 -51.04248047 32.34423828 C-51.07818569 27.2968177 -50.61891853 22.80202848 -47 19 C-39.77180335 14.16828073 -31.55505022 11.21297841 -23.42919922 8.25146484 C-20.35293522 7.1288015 -17.31746623 5.94249746 -14.28515625 4.70703125 C-2.67034525 0 -2.67034525 0 0 0 Z " fill="#BA7B62" transform="translate(184,373)"/>
<path d="M0 0 C2.45817566 -0.37473011 2.45817566 -0.37473011 5.61791992 -0.3742218 C6.81258881 -0.38123611 8.00725769 -0.38825043 9.23812866 -0.39547729 C10.55560089 -0.38783356 11.87307312 -0.38018982 13.23046875 -0.37231445 C14.62651847 -0.37474138 16.02256645 -0.37845974 17.41860962 -0.38337708 C21.21611736 -0.39280337 25.01336815 -0.38334625 28.81085587 -0.37004495 C32.7790965 -0.35875172 36.74732409 -0.3628363 40.71557617 -0.36479187 C47.38041395 -0.36567552 54.04515014 -0.35457963 60.70996094 -0.33618164 C68.42281431 -0.31501289 76.13551881 -0.3115037 83.84839535 -0.3177436 C91.25837615 -0.32343224 98.66830437 -0.31779751 106.07827759 -0.30657005 C109.23614471 -0.30191742 112.39397974 -0.30105308 115.55184937 -0.3031559 C119.26841734 -0.30503533 122.98483315 -0.29696172 126.70136642 -0.2810955 C128.72152497 -0.27480763 130.74170657 -0.27836674 132.76187134 -0.28216553 C134.55387466 -0.27153831 134.55387466 -0.27153831 136.38208008 -0.26069641 C137.42479568 -0.25864354 138.46751129 -0.25659067 139.54182434 -0.25447559 C142 0 142 0 144 2 C144 5.96 144 9.92 144 14 C95.82 14 47.64 14 -2 14 C-2 3 -2 3 0 0 Z " fill="#A4E5EE" transform="translate(184,291)"/>
<path d="M0 0 C14.85 0 29.7 0 45 0 C46.49206049 7.46030243 44.21383865 12.4073006 40.1171875 18.67578125 C39.04702735 20.22869091 37.96614872 21.77426541 36.875 23.3125 C35.78385171 24.8674502 34.69769856 26.42592067 33.6171875 27.98828125 C33.13878418 28.66415283 32.66038086 29.34002441 32.16748047 30.03637695 C30.97943525 32.03458851 30.43687388 33.72844602 30 36 C28.9584375 36.21914063 27.916875 36.43828125 26.84375 36.6640625 C12.68801309 39.75073942 -0.3483339 44.41858806 -13.30517578 50.90356445 C-14.84381009 51.65853734 -16.41959274 52.33690687 -18 53 C-18.66 52.67 -19.32 52.34 -20 52 C-15.05441193 42.69417123 -9.88451135 34.07902374 -3.26171875 25.8671875 C1.1039101 20.81793794 1.1039101 20.81793794 3.2421875 14.7265625 C3.12101562 14.03304688 2.99984375 13.33953125 2.875 12.625 C2.76929688 11.93664062 2.66359375 11.24828125 2.5546875 10.5390625 C1.78319724 7.007593 0.87670755 3.50683018 0 0 Z " fill="#EDEBED" transform="translate(164,320)"/>
<path d="M0 0 C16.83 0 33.66 0 51 0 C51 8.25 51 16.5 51 25 C34.17 25 17.34 25 0 25 C0 16.75 0 8.5 0 0 Z " fill="#DFDBDF" transform="translate(230,251)"/>
<path d="M0 0 C0.83442627 -0.00525696 1.66885254 -0.01051392 2.52856445 -0.01593018 C5.29006605 -0.02914689 8.05099242 -0.02038627 10.8125 -0.01025391 C12.72916779 -0.01227416 14.64583484 -0.0151852 16.5625 -0.01895142 C20.58080356 -0.02337703 24.59890716 -0.01693606 28.6171875 -0.00292969 C33.77246008 0.01416231 38.92726414 0.0043224 44.08251953 -0.01364708 C48.04072613 -0.02447849 51.99882133 -0.02104153 55.95703125 -0.0132637 C57.85807348 -0.01125992 59.75912576 -0.01372721 61.66015625 -0.02070236 C64.3153774 -0.02830628 66.96983578 -0.01672777 69.625 0 C70.41366455 -0.00607269 71.2023291 -0.01214539 72.01489258 -0.0184021 C77.28876755 0.04327034 77.28876755 0.04327034 79.80078125 1.69760132 C81.53555428 4.59640748 81.15740247 7.11161013 80.8125 10.38818359 C79.79978943 12.57749939 79.79978943 12.57749939 77.8125 14.38818359 C74.9625564 14.79576032 72.49402751 14.94528671 69.64086914 14.92163086 C68.80804916 14.93024643 67.97522919 14.938862 67.11717224 14.94773865 C64.36035199 14.97046727 61.60454267 14.96364701 58.84765625 14.95458984 C56.93338213 14.95982268 55.01911059 14.9660979 53.10484314 14.97337341 C49.09068683 14.98379057 45.0768847 14.97919776 41.06274414 14.96459961 C35.91628618 14.94741662 30.77094513 14.97089405 25.62461185 15.00608921 C21.67061451 15.02804198 17.71688523 15.02662678 13.76284599 15.0183239 C11.86540948 15.01750308 9.96795353 15.02439136 8.07057381 15.03909492 C5.41752481 15.05650043 2.7664929 15.04203264 0.11352539 15.01928711 C-0.67154388 15.03097931 -1.45661316 15.04267151 -2.26547241 15.05471802 C-6.12750774 14.98729064 -7.83633326 14.71449047 -10.71022034 12.04405212 C-12.1875 9.38818359 -12.1875 9.38818359 -12.125 6.26318359 C-10.00026846 -0.2526598 -6.28761293 -0.04841443 0 0 Z " fill="#010101" transform="translate(174.1875,192.61181640625)"/>
<path d="M0 0 C14.52 0 29.04 0 44 0 C44 6.93 44 13.86 44 21 C29.48 21 14.96 21 0 21 C0 14.07 0 7.14 0 0 Z " fill="#D0EEF2" transform="translate(285,178)"/>
<path d="M0 0 C8.25 0 16.5 0 25 0 C25.02290338 6.96008302 25.04283219 13.92003633 25.05493164 20.88012695 C25.05997341 23.24992312 25.06680665 25.61971615 25.07543945 27.98950195 C25.0875119 31.38754039 25.09322971 34.78553785 25.09765625 38.18359375 C25.10281754 39.25024765 25.10797882 40.31690155 25.11329651 41.4158783 C25.11340981 42.88729027 25.11340981 42.88729027 25.11352539 44.38842773 C25.115746 45.25668686 25.11796661 46.12494598 25.12025452 47.01951599 C25 49 25 49 24 50 C22.00041636 50.04080783 19.99954746 50.04254356 18 50 C16.82569299 46.6727968 15.81185734 43.35486603 14.9921875 39.92578125 C11.60679781 25.83735186 6.47401102 12.94802204 0 0 Z " fill="#C7C0C8" transform="translate(374,355)"/>
<path d="M0 0 C1.47668858 0.0133035 2.95331108 0.03716415 4.4296875 0.0703125 C5.18378906 0.07933594 5.93789062 0.08835937 6.71484375 0.09765625 C8.57826004 0.1212438 10.44151343 0.15711531 12.3046875 0.1953125 C13.6207047 3.33605943 14.69219672 6.3707509 15.4296875 9.6953125 C15.68105469 10.79359375 15.68105469 10.79359375 15.9375 11.9140625 C16.3046875 14.1953125 16.3046875 14.1953125 16.3046875 19.1953125 C5.7446875 19.1953125 -4.8153125 19.1953125 -15.6953125 19.1953125 C-16.0253125 17.8753125 -16.3553125 16.5553125 -16.6953125 15.1953125 C-14.99943599 12.79800016 -13.34214921 10.7296799 -11.3828125 8.5703125 C-10.87041016 7.98507813 -10.35800781 7.39984375 -9.83007812 6.796875 C-4.03942633 0.21350033 -4.03942633 0.21350033 0 0 Z " fill="#6AD7E5" transform="translate(118.6953125,14.8046875)"/>
<path d="M0 0 C1.13308594 -0.01933594 2.26617187 -0.03867188 3.43359375 -0.05859375 C7.16109563 0.53240842 8.31756138 1.45863914 10.5625 4.4375 C11.31437617 8.36396445 10.88570201 9.92483474 8.75 13.3125 C4.10878001 16.40664666 -0.01556521 16.43585027 -5.4375 15.4375 C-8.6875 13.375 -8.6875 13.375 -10.4375 10.4375 C-10.4375 6.97925064 -10.2652387 4.63869657 -8.27734375 1.75390625 C-5.55042877 -0.19719852 -3.314812 0.00376256 0 0 Z " fill="#090909" transform="translate(187.4375,162.5625)"/>
<path d="M0 0 C1.03125 -0.0103125 2.0625 -0.020625 3.125 -0.03125 C6.66465076 0.6228159 7.8447721 1.6601703 10 4.5 C10.5625 8 10.5625 8 10 11.5 C7.81539266 14.33998954 6.14419597 15.3011725 2.6171875 15.9140625 C-1.91901519 16.17133967 -4.3022849 15.97444627 -8.125 13.375 C-10.3337936 9.98818314 -10.75856436 8.46139166 -10 4.5 C-6.98560372 0.59192388 -4.86757885 -0.04867579 0 0 Z " fill="#050505" transform="translate(230,162.5)"/>
</svg>
